<svg width="27" height="17" viewBox="0 0 27 17" fill="none" xmlns="http://www.w3.org/2000/svg">
<path d="M0.00940871 9.95835H-0.571236V10.3297L-0.234111 10.4855L0.00940871 9.95835ZM0.00940871 8.17682L-0.234111 7.64971L-0.571236 7.80546V8.17682H0.00940871ZM8.47165 4.26736H9.0523V3.3595L8.22813 3.74025L8.47165 4.26736ZM8.47165 6.46334L8.70058 6.99695L9.0523 6.84606V6.46334H8.47165ZM2.45901 9.04284L1.9565 8.75191L1.07969 10.2664L2.68793 9.57645L2.45901 9.04284ZM2.52705 8.92531H3.1077V6.76349L2.02454 8.63438L2.52705 8.92531ZM2.52705 9.20986L2.02454 9.50078L3.1077 11.3717V9.20986H2.52705ZM2.45901 9.09233L2.68793 8.55872L1.07969 7.86876L1.9565 9.38325L2.45901 9.09233ZM8.47165 11.6718H9.0523V11.2891L8.70058 11.1382L8.47165 11.6718ZM8.47165 13.8678L8.22813 14.3949L9.0523 14.7757V13.8678H8.47165ZM0.590054 9.95835V8.17682H-0.571236V9.95835H0.590054ZM0.252928 8.70393L8.71517 4.79448L8.22813 3.74025L-0.234111 7.64971L0.252928 8.70393ZM7.89101 4.26736V6.46334H9.0523V4.26736H7.89101ZM8.24273 5.92973L2.23008 8.50923L2.68793 9.57645L8.70058 6.99695L8.24273 5.92973ZM2.96151 9.33377L3.02956 9.21623L2.02454 8.63438L1.9565 8.75191L2.96151 9.33377ZM1.9464 8.92531V9.20986H3.1077V8.92531H1.9464ZM3.02956 8.91893L2.96151 8.8014L1.9565 9.38325L2.02454 9.50078L3.02956 8.91893ZM2.23008 9.62594L8.24273 12.2054L8.70058 11.1382L2.68793 8.55872L2.23008 9.62594ZM7.89101 11.6718V13.8678H9.0523V11.6718H7.89101ZM8.71517 13.3407L0.252928 9.43123L-0.234111 10.4855L8.22813 14.3949L8.71517 13.3407ZM16.4251 0.834216L16.9858 0.985136L17.1827 0.253572H16.4251V0.834216ZM12.3424 16.0019V16.5826H12.7875L12.9031 16.1528L12.3424 16.0019ZM10.3815 16.0019L9.82084 15.851L9.62393 16.5826H10.3815V16.0019ZM14.4642 0.834216V0.253572H14.0192L13.9035 0.683297L14.4642 0.834216ZM15.8644 0.683297L11.7818 15.851L12.9031 16.1528L16.9858 0.985136L15.8644 0.683297ZM12.3424 15.4213H10.3815V16.5826H12.3424V15.4213ZM10.9422 16.1528L15.0249 0.985136L13.9035 0.683297L9.82084 15.851L10.9422 16.1528ZM14.4642 1.41486H16.4251V0.253572H14.4642V1.41486ZM26.7926 9.95835L27.0361 10.4855L27.3732 10.3297V9.95835H26.7926ZM18.3304 13.8678H17.7497V14.7757L18.5739 14.3949L18.3304 13.8678ZM18.3304 11.6718L18.1014 11.1382L17.7497 11.2891V11.6718H18.3304ZM24.343 9.09233L24.8455 9.38325L25.7223 7.86876L24.1141 8.55872L24.343 9.09233ZM24.275 9.20986H23.6943V11.3717L24.7775 9.50078L24.275 9.20986ZM24.275 8.92531L24.7775 8.63438L23.6943 6.76349V8.92531H24.275ZM24.343 9.04284L24.1141 9.57645L25.7223 10.2664L24.8455 8.75191L24.343 9.04284ZM18.3304 6.46334H17.7497V6.84606L18.1014 6.99695L18.3304 6.46334ZM18.3304 4.26736L18.5739 3.74025L17.7497 3.3595V4.26736H18.3304ZM26.7926 8.17682H27.3732V7.80546L27.0361 7.64971L26.7926 8.17682ZM26.5491 9.43123L18.0868 13.3407L18.5739 14.3949L27.0361 10.4855L26.5491 9.43123ZM18.911 13.8678V11.6718H17.7497V13.8678H18.911ZM18.5593 12.2054L24.5719 9.62594L24.1141 8.55872L18.1014 11.1382L18.5593 12.2054ZM23.8405 8.8014L23.7724 8.91893L24.7775 9.50078L24.8455 9.38325L23.8405 8.8014ZM24.8556 9.20986V8.92531H23.6943V9.20986H24.8556ZM23.7724 9.21623L23.8405 9.33377L24.8455 8.75191L24.7775 8.63438L23.7724 9.21623ZM24.5719 8.50923L18.5593 5.92973L18.1014 6.99695L24.1141 9.57645L24.5719 8.50923ZM18.911 6.46334V4.26736H17.7497V6.46334H18.911ZM18.0868 4.79448L26.5491 8.70393L27.0361 7.64971L18.5739 3.74025L18.0868 4.79448ZM26.2119 8.17682V9.95835H27.3732V8.17682H26.2119Z" fill="#1C1B24" fill-opacity="0.4"/>
</svg>
