<svg width="19" height="19" viewBox="0 0 19 19" fill="none" xmlns="http://www.w3.org/2000/svg">
<path d="M11.0862 12.8317C11.0862 14.1499 10.5128 15.3415 9.59675 16.1532C8.80733 16.8682 7.76471 17.3001 6.61782 17.3001C4.15275 17.3001 2.14941 15.2968 2.14941 12.8317C2.14941 11.3238 2.90455 9.98787 4.0525 9.18055C4.23734 9.05056 4.48736 9.13948 4.58711 9.34224C5.29007 10.7712 6.5837 11.8412 8.12218 12.2583C8.59136 12.3923 9.08289 12.4594 9.59675 12.4594C9.95961 12.4594 10.3072 12.4249 10.6449 12.3616C10.8597 12.3213 11.0734 12.459 11.0829 12.6772C11.0851 12.729 11.0862 12.7806 11.0862 12.8317Z" fill="#292D32"/>
<path d="M14.0652 6.87368C14.0652 7.45457 13.9535 8.01312 13.7524 8.51954C13.2386 9.81537 12.1364 10.8133 10.7735 11.1857C10.4011 11.2899 10.0064 11.3421 9.59682 11.3421C9.18722 11.3421 8.79251 11.2899 8.42014 11.1857C7.05728 10.8133 5.95507 9.81537 5.44121 8.51954C5.24013 8.01312 5.12842 7.45457 5.12842 6.87368C5.12842 4.40861 7.13175 2.40527 9.59682 2.40527C12.0619 2.40527 14.0652 4.40861 14.0652 6.87368Z" fill="#292D32"/>
<path d="M17.0443 12.8317C17.0443 15.2968 15.0409 17.3001 12.5759 17.3001C12.0214 17.3001 11.488 17.199 10.9978 17.0127C10.7605 16.9225 10.7162 16.6188 10.8815 16.426C11.7319 15.4337 12.2035 14.1618 12.2035 12.8317C12.2035 12.5785 12.1811 12.3253 12.1439 12.087C12.1217 11.9496 12.1918 11.8146 12.3136 11.7472C13.2997 11.2013 14.1049 10.3648 14.6067 9.34287C14.7064 9.13987 14.9566 9.05073 15.1416 9.18085C16.2893 9.98821 17.0443 11.324 17.0443 12.8317Z" fill="#292D32"/>
</svg>
