<svg width="161" height="388" viewBox="0 0 161 388" fill="none" xmlns="http://www.w3.org/2000/svg">
<path d="M103.709 156.657L103.009 156.442L103.007 156.451L103.709 156.657ZM142.433 168.873L143.133 169.088L143.135 169.08L143.138 169.072L142.433 168.873ZM108.08 280.565L107.381 280.35L106.949 281.751L108.329 281.253L108.08 280.565ZM217.992 240.882L217.759 240.188L217.751 240.19L217.743 240.193L217.992 240.882ZM236.82 256.357L237.509 256.109L236.82 256.357ZM232.055 278.973L232.295 279.665L232.303 279.662L232.055 278.973ZM83.8678 330.323L84.1049 331.015L84.1075 331.014L83.8678 330.323ZM75.1593 330.911L74.9446 331.611L74.9583 331.615L74.9722 331.619L75.1593 330.911ZM59.3749 315.868L58.6769 316.089L58.6813 316.103L58.6861 316.117L59.3749 315.868ZM59.5442 307.142L58.8417 306.936L58.841 306.938L59.5442 307.142ZM104.409 156.872C105.178 154.366 106.062 152.659 107.014 151.659L105.955 150.649C104.77 151.892 103.803 153.854 103.009 156.442L104.409 156.872ZM107.014 151.659C108.49 150.111 110.623 149.259 113.516 149.189L113.481 147.726C110.311 147.802 107.767 148.748 105.955 150.649L107.014 151.659ZM113.516 149.189C116.429 149.119 120.53 149.875 125.856 151.51L126.285 150.11C120.913 148.462 116.633 147.65 113.481 147.726L113.516 149.189ZM125.856 151.51C132.449 153.532 136.962 155.782 139.51 158.21L140.52 157.15C137.72 154.481 132.937 152.151 126.285 150.11L125.856 151.51ZM139.51 158.21C142.203 160.777 142.993 164.206 141.729 168.673L143.138 169.072C144.514 164.206 143.692 160.173 140.52 157.15L139.51 158.21ZM141.734 168.658L107.381 280.35L108.78 280.78L143.133 169.088L141.734 168.658ZM108.329 281.253L218.24 241.57L217.743 240.193L107.832 279.876L108.329 281.253ZM218.225 241.576C222.626 240.098 226.089 240.722 228.783 243.289L229.793 242.229C226.621 239.206 222.553 238.578 217.759 240.188L218.225 241.576ZM228.783 243.289C231.33 245.717 233.794 250.117 236.132 256.605L237.509 256.109C235.151 249.563 232.593 244.898 229.793 242.229L228.783 243.289ZM236.132 256.605C238.02 261.846 238.973 265.905 239.043 268.819L240.506 268.783C240.43 265.632 239.414 261.395 237.509 256.109L236.132 256.605ZM239.043 268.819C239.112 271.712 238.364 273.883 236.888 275.432L237.948 276.442C239.76 274.541 240.583 271.954 240.506 268.783L239.043 268.819ZM236.888 275.432C235.935 276.432 234.273 277.396 231.807 278.285L232.303 279.662C234.85 278.745 236.763 277.685 237.948 276.442L236.888 275.432ZM231.815 278.282L83.6281 329.631L84.1075 331.014L232.295 279.665L231.815 278.282ZM83.6306 329.63C80.5588 330.682 77.8062 330.854 75.3464 330.204L74.9722 331.619C77.771 332.359 80.824 332.139 84.1049 331.015L83.6306 329.63ZM75.374 330.211C72.9923 329.481 70.0509 327.501 66.5391 324.154L65.529 325.214C69.09 328.607 72.2322 330.779 74.9446 331.611L75.374 330.211ZM66.5391 324.154C63.0273 320.807 60.908 317.964 60.0636 315.62L58.6861 316.117C59.6478 318.786 61.968 321.82 65.529 325.214L66.5391 324.154ZM60.0728 315.647C59.3048 313.222 59.3444 310.464 60.2474 307.345L58.841 306.938C57.8765 310.269 57.8031 313.329 58.6769 316.089L60.0728 315.647ZM60.2466 307.348L104.412 156.863L103.007 156.451L58.8417 306.936L60.2466 307.348ZM321.439 32.337L321.202 31.6444L321.2 31.6453L321.439 32.337ZM330.024 31.8777L329.81 32.5775L329.823 32.5818L329.837 32.5854L330.024 31.8777ZM345.809 46.9206L345.111 47.1416L345.115 47.1553L345.12 47.1687L345.809 46.9206ZM345.763 55.5179L346.465 55.7241L346.466 55.7215L345.763 55.5179ZM301.598 206.003L302.298 206.217L302.3 206.209L301.598 206.003ZM262.874 193.787L262.174 193.572L262.172 193.58L262.169 193.588L262.874 193.787ZM297.227 82.0948L297.926 82.31L298.358 80.9082L296.978 81.4062L297.227 82.0948ZM187.315 121.778L187.548 122.472L187.556 122.469L187.564 122.467L187.315 121.778ZM168.487 106.303L169.175 106.055L168.487 106.303ZM173.252 83.6863L173.012 82.9945L173.004 82.9976L173.252 83.6863ZM321.676 33.0296C324.745 31.9788 327.445 31.8519 329.81 32.5775L330.239 31.1778C327.51 30.3404 324.486 30.5198 321.202 31.6444L321.676 33.0296ZM329.837 32.5854C332.286 33.233 335.26 35.1628 338.768 38.5059L339.778 37.446C336.213 34.0486 333.021 31.9128 330.212 31.1699L329.837 32.5854ZM338.768 38.5059C342.276 41.849 344.346 44.7265 345.111 47.1416L346.507 46.6997C345.63 43.9291 343.343 40.8435 339.778 37.446L338.768 38.5059ZM345.12 47.1687C345.959 49.4961 345.962 52.1988 345.06 55.3143L346.466 55.7215C347.431 52.3872 347.465 49.3583 346.498 46.6725L345.12 47.1687ZM345.06 55.3118L300.895 205.796L302.3 206.209L346.465 55.7241L345.06 55.3118ZM300.898 205.788C300.129 208.294 299.245 210 298.293 211L299.352 212.01C300.537 210.767 301.504 208.805 302.298 206.217L300.898 205.788ZM298.293 211C296.817 212.549 294.684 213.401 291.791 213.47L291.826 214.934C294.996 214.858 297.54 213.912 299.352 212.01L298.293 211ZM291.791 213.47C288.878 213.54 284.777 212.784 279.451 211.15L279.022 212.55C284.394 214.198 288.674 215.01 291.826 214.934L291.791 213.47ZM279.451 211.15C272.858 209.127 268.345 206.878 265.797 204.45L264.787 205.51C267.587 208.178 272.37 210.509 279.022 212.55L279.451 211.15ZM265.797 204.45C263.104 201.883 262.314 198.454 263.578 193.986L262.169 193.588C260.793 198.454 261.615 202.487 264.787 205.51L265.797 204.45ZM263.574 194.002L297.926 82.31L296.527 81.8796L262.174 193.572L263.574 194.002ZM296.978 81.4062L187.067 121.09L187.564 122.467L297.475 82.7833L296.978 81.4062ZM187.082 121.084C182.681 122.562 179.218 121.938 176.524 119.371L175.514 120.431C178.686 123.453 182.754 124.081 187.548 122.472L187.082 121.084ZM176.524 119.371C173.977 116.943 171.513 112.543 169.175 106.055L167.798 106.551C170.156 113.097 172.714 117.762 175.514 120.431L176.524 119.371ZM169.175 106.055C167.287 100.813 166.335 96.7542 166.264 93.8411L164.801 93.8763C164.877 97.0277 165.893 101.264 167.798 106.551L169.175 106.055ZM166.264 93.8411C166.195 90.9474 166.943 88.7767 168.419 87.2279L167.359 86.2178C165.547 88.1191 164.724 90.7056 164.801 93.8763L166.264 93.8411ZM168.419 87.2279C169.372 86.2281 171.034 85.2636 173.5 84.375L173.004 82.9976C170.457 83.9151 168.544 84.9749 167.359 86.2178L168.419 87.2279ZM173.492 84.378L321.679 33.0287L321.2 31.6453L173.012 82.9946L173.492 84.378Z" fill="url(#paint0_linear_1293_8235)" fill-opacity="0.83"/>
<defs>
<linearGradient id="paint0_linear_1293_8235" x1="306.445" y1="80.3809" x2="200.534" y2="153.814" gradientUnits="userSpaceOnUse">
<stop stop-color="#5D75EE"/>
<stop offset="0.491658" stop-color="#5BDAF2"/>
</linearGradient>
</defs>
</svg>
