<svg width="74" height="63" viewBox="0 0 74 63" fill="none" xmlns="http://www.w3.org/2000/svg">
<path d="M48.0108 27.0364L47.2439 28.1927L43.8371 21.3207C42.5413 18.7288 39.6194 16.7907 36.7432 16.6154L29.0769 16.1654L29.8542 14.9935C32.1861 11.4778 35.3931 10.815 38.9088 13.1469L46.1902 17.9765C49.7059 20.3084 50.3427 23.5207 48.0108 27.0364Z" fill="#99E7FC"/>
<path d="M45.4873 30.9427L45.3411 30.6883L44.0245 28.06L41.3075 22.5904C40.4819 20.9179 38.4193 19.5498 36.5574 19.4398L30.4721 19.0485L27.5179 18.889L27.1434 18.8431C23.186 18.8732 22.7705 19.0926 20.8117 22.0457L16.1272 29.1084C14.1684 32.0616 14.1279 32.5297 15.6708 36.2755L19.8403 44.6435C20.2427 45.4954 20.9725 46.2269 21.8319 46.7969C22.6757 47.3566 23.6594 47.7391 24.5904 47.7941L34.0148 48.3752C37.9878 48.3555 38.3773 48.1413 40.3464 45.1725L45.0309 38.1099C46.9897 35.1567 47.0302 34.6886 45.4873 30.9427ZM34.9903 36.4225L33.2599 36.9622C32.9897 37.0305 32.6626 37.2861 32.5228 37.5308L31.6216 39.093C31.0726 40.0564 30.1055 40.0898 29.4637 39.1917L28.4462 37.7068C28.2792 37.4836 27.9198 37.2452 27.6493 37.1782L25.8959 36.8027C24.8085 36.5765 24.4735 35.6568 25.1475 34.7764L26.2362 33.3385C26.4072 33.1145 26.5155 32.7138 26.4733 32.4383L26.2714 30.6395C26.144 29.5425 26.9279 28.9374 27.974 29.2938L29.6759 29.8826C29.9517 29.9756 30.3624 29.933 30.6118 29.8284L32.2534 29.1173C33.2716 28.6677 34.0685 29.1963 34.066 30.3195L34.0494 32.1085C34.0396 32.3945 34.1862 32.7842 34.3634 32.9918L35.5679 34.3307C36.3031 35.1558 36.0505 36.1132 34.9903 36.4225Z" fill="#99E7FC"/>
<g opacity="0.59">
<path d="M61.6259 28.2939V29.6814L54.9884 25.8376C52.4759 24.3939 48.9696 24.3939 46.4759 25.8376L39.8384 29.7001V28.2939C39.8384 24.0751 42.1446 21.7501 46.3634 21.7501H55.1009C59.3196 21.7501 61.6259 24.0751 61.6259 28.2939Z" fill="#7877F7"/>
<path d="M61.6819 32.9436L61.4194 32.8123L58.8694 31.3498L53.5819 28.2936C51.9694 27.3561 49.4944 27.3561 47.8819 28.2936L42.5944 31.3311L40.0444 32.8311L39.7069 32.9998C36.4257 35.2123 36.2007 35.6248 36.2007 39.1686V47.6436C36.2007 51.1873 36.4257 51.5998 39.7819 53.8686L47.8819 58.5373C48.6882 59.0248 49.7007 59.2311 50.7319 59.2311C51.7444 59.2311 52.7757 59.0061 53.5819 58.5373L61.7569 53.8123C65.0569 51.5998 65.2632 51.2061 65.2632 47.6436V39.1686C65.2632 35.6248 65.0382 35.2123 61.6819 32.9436ZM55.9632 43.3123L54.8194 44.7186C54.6319 44.9248 54.5007 45.3186 54.5194 45.5998L54.6319 47.3998C54.7069 48.5061 53.9194 49.0686 52.8882 48.6748L51.2194 47.9998C50.9569 47.9061 50.5257 47.9061 50.2632 47.9998L48.5944 48.6561C47.5632 49.0686 46.7757 48.4873 46.8507 47.3811L46.9632 45.5811C46.9819 45.2998 46.8507 44.9061 46.6632 44.6998L45.5007 43.3123C44.7882 42.4686 45.1069 41.5311 46.1757 41.2498L47.9194 40.7998C48.2007 40.7248 48.5194 40.4623 48.6694 40.2373L49.6444 38.7373C50.2444 37.7998 51.2007 37.7998 51.8194 38.7373L52.7944 40.2373C52.9444 40.4811 53.2819 40.7248 53.5444 40.7998L55.2882 41.2498C56.3569 41.5311 56.6757 42.4686 55.9632 43.3123Z" fill="#7877F7"/>
</g>
</svg>
