<svg width="67" height="67" viewBox="0 0 67 67" fill="none" xmlns="http://www.w3.org/2000/svg">
<path d="M44.5005 25.7505C34.1505 25.7505 25.7505 34.1505 25.7505 44.5005C25.7505 54.8505 34.1505 63.2505 44.5005 63.2505C54.8505 63.2505 63.2505 54.8505 63.2505 44.5005C63.2505 34.1505 54.8505 25.7505 44.5005 25.7505ZM37.9942 47.2567C38.538 47.8005 38.538 48.7005 37.9942 49.2442C37.713 49.5255 37.3567 49.6567 37.0005 49.6567C36.6442 49.6567 36.288 49.5255 36.0067 49.2442L32.2567 45.4942C31.713 44.9505 31.713 44.0505 32.2567 43.5067L36.0067 39.7567C36.5505 39.213 37.4505 39.213 37.9942 39.7567C38.538 40.3005 38.538 41.2005 37.9942 41.7442L35.238 44.5005L37.9942 47.2567ZM47.6692 40.6755L43.9192 49.4317C43.6942 49.9567 43.1692 50.2755 42.6255 50.2755C42.438 50.2755 42.2505 50.238 42.0817 50.163C41.3692 49.863 41.0317 49.038 41.3505 48.3067L45.1005 39.5505C45.4005 38.838 46.2255 38.5005 46.938 38.8192C47.6505 39.138 47.9692 39.963 47.6692 40.6755ZM56.7442 45.4942L52.9942 49.2442C52.713 49.5255 52.3567 49.6567 52.0005 49.6567C51.6442 49.6567 51.288 49.5255 51.0067 49.2442C50.463 48.7005 50.463 47.8005 51.0067 47.2567L53.763 44.5005L51.0067 41.7442C50.463 41.2005 50.463 40.3005 51.0067 39.7567C51.5505 39.213 52.4505 39.213 52.9942 39.7567L56.7442 43.5067C57.288 44.0505 57.288 44.9505 56.7442 45.4942Z" fill="#7876F7"/>
<path d="M22.5005 3.75049C12.1505 3.75049 3.75049 12.1505 3.75049 22.5005C3.75049 32.8505 12.1505 41.2505 22.5005 41.2505C32.8505 41.2505 41.2505 32.8505 41.2505 22.5005C41.2505 12.1505 32.8505 3.75049 22.5005 3.75049ZM15.9942 25.2567C16.538 25.8005 16.538 26.7005 15.9942 27.2442C15.713 27.5255 15.3567 27.6567 15.0005 27.6567C14.6442 27.6567 14.288 27.5255 14.0067 27.2442L10.2567 23.4942C9.71299 22.9505 9.71299 22.0505 10.2567 21.5067L14.0067 17.7567C14.5505 17.213 15.4505 17.213 15.9942 17.7567C16.538 18.3005 16.538 19.2005 15.9942 19.7442L13.238 22.5005L15.9942 25.2567ZM25.6692 18.6755L21.9192 27.4317C21.6942 27.9567 21.1692 28.2755 20.6255 28.2755C20.438 28.2755 20.2505 28.238 20.0817 28.163C19.3692 27.863 19.0317 27.038 19.3505 26.3067L23.1005 17.5505C23.4005 16.838 24.2255 16.5005 24.938 16.8192C25.6505 17.138 25.9692 17.963 25.6692 18.6755ZM34.7442 23.4942L30.9942 27.2442C30.713 27.5255 30.3567 27.6567 30.0005 27.6567C29.6442 27.6567 29.288 27.5255 29.0067 27.2442C28.463 26.7005 28.463 25.8005 29.0067 25.2567L31.763 22.5005L29.0067 19.7442C28.463 19.2005 28.463 18.3005 29.0067 17.7567C29.5505 17.213 30.4505 17.213 30.9942 17.7567L34.7442 21.5067C35.288 22.0505 35.288 22.9505 34.7442 23.4942Z" fill="#5ED1F9"/>
</svg>
