<svg width="26" height="26" viewBox="0 0 26 26" fill="none" xmlns="http://www.w3.org/2000/svg">
<path d="M18.6377 4.2625L16.1877 1.8125C14.4377 0.0625 11.5627 0.0625 9.8127 1.8125L7.3627 4.2625C6.8752 4.75 6.8752 5.55 7.3627 6.0375L12.1252 10.8C12.6127 11.2875 13.4002 11.2875 13.8877 10.8L18.6502 6.0375C19.1252 5.55 19.1252 4.75 18.6377 4.2625Z" fill="#292D32"/>
<path d="M4.2625 7.36245L1.8125 9.81245C0.0625 11.5625 0.0625 14.4375 1.8125 16.1875L4.2625 18.6375C4.75 19.125 5.5375 19.125 6.025 18.6375L10.7875 13.875C11.275 13.3875 11.275 12.6 10.7875 12.1125L6.0375 7.36245C5.55 6.87495 4.75 6.87495 4.2625 7.36245Z" fill="#292D32"/>
<path d="M24.1873 9.81245L21.7373 7.36245C21.2498 6.87495 20.4623 6.87495 19.9748 7.36245L15.2123 12.125C14.7248 12.6125 14.7248 13.4 15.2123 13.8875L19.9748 18.65C20.4623 19.1375 21.2498 19.1375 21.7373 18.65L24.1873 16.2C25.9373 14.4375 25.9373 11.5625 24.1873 9.81245Z" fill="#292D32"/>
<path d="M7.36232 21.7375L9.81232 24.1876C11.5623 25.9376 14.4373 25.9376 16.1873 24.1876L18.6373 21.7375C19.1248 21.25 19.1248 20.4625 18.6373 19.975L13.8748 15.2125C13.3873 14.725 12.5998 14.725 12.1123 15.2125L7.34982 19.975C6.87482 20.45 6.87482 21.25 7.36232 21.7375Z" fill="#292D32"/>
</svg>
