<svg width="61" height="63" viewBox="0 0 61 63" fill="none" xmlns="http://www.w3.org/2000/svg">
<path d="M46 21.75H31C24.4375 21.75 21.625 25.5 21.625 31.125V49.875C21.625 55.5 24.4375 59.25 31 59.25H46C52.5625 59.25 55.375 55.5 55.375 49.875V31.125C55.375 25.5 52.5625 21.75 46 21.75ZM35.7437 48.8812C36.2875 49.425 36.2875 50.325 35.7437 50.8688C35.4625 51.15 35.1062 51.2812 34.75 51.2812C34.3938 51.2812 34.0375 51.15 33.7563 50.8688L30.0062 47.1187C29.4625 46.575 29.4625 45.675 30.0062 45.1313L33.7563 41.3813C34.3 40.8375 35.2 40.8375 35.7437 41.3813C36.2875 41.925 36.2875 42.825 35.7437 43.3687L32.9875 46.125L35.7437 48.8812ZM46.9938 47.1187L43.2437 50.8688C42.9625 51.15 42.6063 51.2812 42.25 51.2812C41.8937 51.2812 41.5375 51.15 41.2563 50.8688C40.7125 50.325 40.7125 49.425 41.2563 48.8812L44.0125 46.125L41.2563 43.3687C40.7125 42.825 40.7125 41.925 41.2563 41.3813C41.8 40.8375 42.7 40.8375 43.2437 41.3813L46.9938 45.1313C47.5375 45.675 47.5375 46.575 46.9938 47.1187ZM50.6875 35.3438H46.9375C44.0875 35.3438 41.7812 33.0375 41.7812 30.1875V26.4375C41.7812 25.6688 42.4188 25.0312 43.1875 25.0312C43.9562 25.0312 44.5938 25.6688 44.5938 26.4375V30.1875C44.5938 31.4812 45.6437 32.5312 46.9375 32.5312H50.6875C51.4562 32.5312 52.0938 33.1687 52.0938 33.9375C52.0938 34.7063 51.4562 35.3438 50.6875 35.3438Z" fill="#7776F6"/>
<path d="M30 3.75H15C8.4375 3.75 5.625 7.5 5.625 13.125V31.875C5.625 37.5 8.4375 41.25 15 41.25H30C36.5625 41.25 39.375 37.5 39.375 31.875V13.125C39.375 7.5 36.5625 3.75 30 3.75ZM19.7437 30.8812C20.2875 31.425 20.2875 32.325 19.7437 32.8688C19.4625 33.15 19.1062 33.2812 18.75 33.2812C18.3938 33.2812 18.0375 33.15 17.7563 32.8688L14.0062 29.1187C13.4625 28.575 13.4625 27.675 14.0062 27.1313L17.7563 23.3813C18.3 22.8375 19.2 22.8375 19.7437 23.3813C20.2875 23.925 20.2875 24.825 19.7437 25.3687L16.9875 28.125L19.7437 30.8812ZM30.9938 29.1187L27.2437 32.8688C26.9625 33.15 26.6063 33.2812 26.25 33.2812C25.8937 33.2812 25.5375 33.15 25.2563 32.8688C24.7125 32.325 24.7125 31.425 25.2563 30.8812L28.0125 28.125L25.2563 25.3687C24.7125 24.825 24.7125 23.925 25.2563 23.3813C25.8 22.8375 26.7 22.8375 27.2437 23.3813L30.9938 27.1313C31.5375 27.675 31.5375 28.575 30.9938 29.1187ZM34.6875 17.3438H30.9375C28.0875 17.3438 25.7812 15.0375 25.7812 12.1875V8.4375C25.7812 7.66875 26.4188 7.03125 27.1875 7.03125C27.9562 7.03125 28.5938 7.66875 28.5938 8.4375V12.1875C28.5938 13.4812 29.6437 14.5312 30.9375 14.5312H34.6875C35.4562 14.5312 36.0938 15.1687 36.0938 15.9375C36.0938 16.7063 35.4562 17.3438 34.6875 17.3438Z" fill="#5ED2FA"/>
</svg>
