<svg width="63" height="57" viewBox="0 0 63 57" fill="none" xmlns="http://www.w3.org/2000/svg">
<path d="M41.25 21.0938V43.3875C41.25 45.2063 39.7687 46.875 37.95 47.1L37.3688 47.175C34.2938 47.5875 29.9625 48.8625 26.475 50.325C25.2562 50.8313 23.9062 49.9125 23.9062 48.5813V22.5C23.9062 21.8063 24.3 21.1688 24.9187 20.8313C28.35 18.975 33.5438 17.325 37.0688 17.025H37.1812C39.4312 17.025 41.25 18.8438 41.25 21.0938Z" fill="#99E7FC"/>
<path d="M20.0814 20.8313C16.6502 18.975 11.4564 17.325 7.93145 17.025H7.8002C5.55019 17.025 3.73145 18.8438 3.73145 21.0938V43.3875C3.73145 45.2063 5.2127 46.875 7.03145 47.1L7.6127 47.175C10.6877 47.5875 15.0189 48.8625 18.5064 50.325C19.7252 50.8313 21.0752 49.9125 21.0752 48.5813V22.5C21.0752 21.7875 20.7002 21.1688 20.0814 20.8313ZM9.3752 26.5125H13.5939C14.3627 26.5125 15.0002 27.15 15.0002 27.9188C15.0002 28.7063 14.3627 29.325 13.5939 29.325H9.3752C8.60645 29.325 7.96895 28.7063 7.96895 27.9188C7.96895 27.15 8.60645 26.5125 9.3752 26.5125ZM15.0002 34.95H9.3752C8.60645 34.95 7.96895 34.3313 7.96895 33.5438C7.96895 32.775 8.60645 32.1375 9.3752 32.1375H15.0002C15.7689 32.1375 16.4064 32.775 16.4064 33.5438C16.4064 34.3313 15.7689 34.95 15.0002 34.95Z" fill="#99E7FC"/>
<g opacity="0.59">
<path d="M59.25 9.09377V31.3875C59.25 33.2063 57.7687 34.875 55.95 35.1L55.3688 35.175C52.2938 35.5875 47.9625 36.8625 44.475 38.325C43.2562 38.8313 41.9062 37.9125 41.9062 36.5813V10.5C41.9062 9.80627 42.3 9.16877 42.9187 8.83127C46.35 6.97502 51.5438 5.32502 55.0688 5.02502H55.1812C57.4312 5.02502 59.25 6.84377 59.25 9.09377Z" fill="#7877F7"/>
<path d="M38.0814 8.83127C34.6502 6.97502 29.4564 5.32502 25.9314 5.02502H25.8002C23.5502 5.02502 21.7314 6.84377 21.7314 9.09377V31.3875C21.7314 33.2063 23.2127 34.875 25.0314 35.1L25.6127 35.175C28.6877 35.5875 33.0189 36.8625 36.5064 38.325C37.7252 38.8313 39.0752 37.9125 39.0752 36.5813V10.5C39.0752 9.78752 38.7002 9.16877 38.0814 8.83127ZM27.3752 14.5125H31.5939C32.3627 14.5125 33.0002 15.15 33.0002 15.9188C33.0002 16.7063 32.3627 17.325 31.5939 17.325H27.3752C26.6064 17.325 25.9689 16.7063 25.9689 15.9188C25.9689 15.15 26.6064 14.5125 27.3752 14.5125ZM33.0002 22.95H27.3752C26.6064 22.95 25.9689 22.3313 25.9689 21.5438C25.9689 20.775 26.6064 20.1375 27.3752 20.1375H33.0002C33.7689 20.1375 34.4064 20.775 34.4064 21.5438C34.4064 22.3313 33.7689 22.95 33.0002 22.95Z" fill="#7877F7"/>
</g>
</svg>
