<svg width="74" height="66" viewBox="0 0 74 66" fill="none" xmlns="http://www.w3.org/2000/svg">
<path d="M59 24.6938H44C36.5 24.6938 32.75 28.4438 32.75 35.9438V45.3188C32.75 54.6938 36.5 56.5688 44 56.5688H44.9375C45.4625 56.5688 46.1375 56.9063 46.4375 57.3188L49.25 61.0688C50.4875 62.7188 52.5125 62.7188 53.75 61.0688L56.5625 57.3188C56.9188 56.8501 57.4813 56.5688 58.0625 56.5688H59C66.5 56.5688 70.25 52.8188 70.25 45.3188V35.9438C70.25 28.4438 66.5 24.6938 59 24.6938ZM44.9938 43.8188C45.5375 44.3626 45.5375 45.2626 44.9938 45.8063C44.7125 46.0876 44.3563 46.2188 44 46.2188C43.6438 46.2188 43.2875 46.0876 43.0063 45.8063L39.2563 42.0563C38.7125 41.5126 38.7125 40.6126 39.2563 40.0688L43.0063 36.3188C43.55 35.7751 44.45 35.7751 44.9938 36.3188C45.5375 36.8626 45.5375 37.7626 44.9938 38.3063L42.2375 41.0626L44.9938 43.8188ZM54.6688 37.2376L50.9188 45.9938C50.6938 46.5188 50.1688 46.8376 49.625 46.8376C49.4375 46.8376 49.25 46.8001 49.0625 46.7251C48.35 46.4251 48.0125 45.6001 48.3313 44.8688L52.0813 36.1126C52.3813 35.4001 53.2063 35.0626 53.9375 35.3813C54.65 35.7001 54.9688 36.5251 54.6688 37.2376ZM63.7438 42.0563L59.9938 45.8063C59.7125 46.0876 59.3563 46.2188 59 46.2188C58.6438 46.2188 58.2875 46.0876 58.0063 45.8063C57.4625 45.2626 57.4625 44.3626 58.0063 43.8188L60.7625 41.0626L58.0063 38.3063C57.4625 37.7626 57.4625 36.8626 58.0063 36.3188C58.55 35.7751 59.45 35.7751 59.9938 36.3188L63.7438 40.0688C64.2875 40.6126 64.2875 41.5126 63.7438 42.0563Z" fill="#7776F6"/>
<path d="M30 3.69385H15C7.5 3.69385 3.75 7.44385 3.75 14.9438V24.3188C3.75 33.6938 7.5 35.5688 15 35.5688H15.9375C16.4625 35.5688 17.1375 35.9063 17.4375 36.3188L20.25 40.0688C21.4875 41.7188 23.5125 41.7188 24.75 40.0688L27.5625 36.3188C27.9188 35.8501 28.4813 35.5688 29.0625 35.5688H30C37.5 35.5688 41.25 31.8188 41.25 24.3188V14.9438C41.25 7.44385 37.5 3.69385 30 3.69385ZM15.9938 22.8188C16.5375 23.3626 16.5375 24.2626 15.9938 24.8063C15.7125 25.0876 15.3563 25.2188 15 25.2188C14.6438 25.2188 14.2875 25.0876 14.0063 24.8063L10.2563 21.0563C9.7125 20.5126 9.7125 19.6126 10.2563 19.0688L14.0063 15.3188C14.55 14.7751 15.45 14.7751 15.9938 15.3188C16.5375 15.8626 16.5375 16.7626 15.9938 17.3063L13.2375 20.0626L15.9938 22.8188ZM25.6688 16.2376L21.9188 24.9938C21.6938 25.5188 21.1688 25.8376 20.625 25.8376C20.4375 25.8376 20.25 25.8001 20.0625 25.7251C19.35 25.4251 19.0125 24.6001 19.3313 23.8688L23.0813 15.1126C23.3813 14.4001 24.2063 14.0626 24.9375 14.3813C25.65 14.7001 25.9688 15.5251 25.6688 16.2376ZM34.7438 21.0563L30.9938 24.8063C30.7125 25.0876 30.3563 25.2188 30 25.2188C29.6438 25.2188 29.2875 25.0876 29.0063 24.8063C28.4625 24.2626 28.4625 23.3626 29.0063 22.8188L31.7625 20.0626L29.0063 17.3063C28.4625 16.7626 28.4625 15.8626 29.0063 15.3188C29.55 14.7751 30.45 14.7751 30.9938 15.3188L34.7438 19.0688C35.2875 19.6126 35.2875 20.5126 34.7438 21.0563Z" fill="#5ED1F9"/>
</svg>
