<svg width="16" height="16" viewBox="0 0 16 16" fill="none" xmlns="http://www.w3.org/2000/svg">
<path d="M10.8814 0.809082H4.92348C1.94455 0.809082 0.455078 2.29855 0.455078 5.27748V9.00115C0.455078 12.7248 1.94455 13.4696 4.92348 13.4696H5.29585C5.50437 13.4696 5.77248 13.6036 5.89163 13.7675L7.00874 15.2569C7.50026 15.9123 8.30457 15.9123 8.7961 15.2569L9.9132 13.7675C10.0547 13.5813 10.2781 13.4696 10.509 13.4696H10.8814C13.8603 13.4696 15.3498 11.9801 15.3498 9.00115V5.27748C15.3498 2.29855 13.8603 0.809082 10.8814 0.809082ZM5.31819 8.40537C5.53416 8.62134 5.53416 8.97881 5.31819 9.19478C5.20648 9.30649 5.06498 9.35863 4.92348 9.35863C4.78198 9.35863 4.64048 9.30649 4.52877 9.19478L3.0393 7.70532C2.82333 7.48934 2.82333 7.13187 3.0393 6.9159L4.52877 5.42643C4.74474 5.21046 5.10222 5.21046 5.31819 5.42643C5.53416 5.6424 5.53416 5.99988 5.31819 6.21585L4.22343 7.31061L5.31819 8.40537ZM9.16102 5.79135L7.67155 9.26926C7.58218 9.47778 7.37366 9.60439 7.15768 9.60439C7.08321 9.60439 7.00874 9.58949 6.93426 9.5597C6.65126 9.44055 6.51721 9.11286 6.64382 8.82242L8.13328 5.34451C8.25244 5.06151 8.58012 4.92746 8.87057 5.05406C9.15357 5.18067 9.28017 5.50835 9.16102 5.79135ZM12.7655 7.70532L11.2761 9.19478C11.1644 9.30649 11.0229 9.35863 10.8814 9.35863C10.7399 9.35863 10.5984 9.30649 10.4866 9.19478C10.2707 8.97881 10.2707 8.62134 10.4866 8.40537L11.5814 7.31061L10.4866 6.21585C10.2707 5.99988 10.2707 5.6424 10.4866 5.42643C10.7026 5.21046 11.0601 5.21046 11.2761 5.42643L12.7655 6.9159C12.9815 7.13187 12.9815 7.48934 12.7655 7.70532Z" fill="#292D32"/>
</svg>
