<svg width="17" height="18" viewBox="0 0 17 18" fill="none" xmlns="http://www.w3.org/2000/svg">
<path d="M11.6993 0.637845L4.0349 3.31146C-1.1171 5.1206 -1.1171 8.07048 4.0349 9.87072L6.30959 10.6639L7.065 13.0523C8.7795 18.4619 11.5974 18.4619 13.3119 13.0523L15.8667 5.01366C17.004 1.40428 15.1368 -0.56528 11.6993 0.637845ZM11.9709 5.43252L8.74555 8.83692C8.61824 8.9706 8.45697 9.03298 8.2957 9.03298C8.13444 9.03298 7.97317 8.9706 7.84586 8.83692C7.59972 8.57847 7.59972 8.15069 7.84586 7.89224L11.0712 4.48785C11.3173 4.2294 11.7247 4.2294 11.9709 4.48785C12.217 4.74629 12.217 5.17407 11.9709 5.43252Z" fill="white"/>
</svg>
